<svg width="100" height="100" viewBox="0 0 100 100" fill="none" xmlns="http://www.w3.org/2000/svg">
<rect width="100" height="100" fill="black"/>
<path d="M10.43 42V15.972H20.726C22.646 15.972 24.374 16.314 25.91 16.998C27.458 17.682 28.682 18.684 29.582 20.004C30.482 21.312 30.932 22.908 30.932 24.792C30.932 26.508 30.554 27.984 29.798 29.22C29.042 30.444 27.968 31.386 26.576 32.046C25.184 32.706 23.534 33.036 21.626 33.036H17.432V42H10.43ZM17.36 27.816H21.41C22.298 27.816 23.036 27.462 23.624 26.754C24.212 26.046 24.506 25.272 24.506 24.432C24.506 23.532 24.182 22.764 23.534 22.128C22.898 21.48 22.19 21.156 21.41 21.156H17.36V27.816ZM34.4417 42V15.972H53.6657L53.6297 21.768H41.4977V26.088H51.6497V31.74H41.4437V36.168H53.7017V42H34.4417ZM64.0599 42L56.2119 15.972H62.9799L67.0119 29.94L70.8999 15.972H75.7959L79.8279 29.94L83.7159 15.972H90.4839L82.7079 42H77.4879L73.3479 27.852L69.2079 42H64.0599ZM10.43 84V57.972H20.726C22.646 57.972 24.374 58.314 25.91 58.998C27.458 59.682 28.682 60.684 29.582 62.004C30.482 63.312 30.932 64.908 30.932 66.792C30.932 68.508 30.554 69.984 29.798 71.22C29.042 72.444 27.968 73.386 26.576 74.046C25.184 74.706 23.534 75.036 21.626 75.036H17.432V84H10.43ZM17.36 69.816H21.41C22.298 69.816 23.036 69.462 23.624 68.754C24.212 68.046 24.506 67.272 24.506 66.432C24.506 65.532 24.182 64.764 23.534 64.128C22.898 63.48 22.19 63.156 21.41 63.156H17.36V69.816ZM34.4417 84V57.972H53.6657L53.6297 63.768H41.4977V68.088H51.6497V73.74H41.4437V78.168H53.7017V84H34.4417ZM64.0599 84L56.2119 57.972H62.9799L67.0119 71.94L70.8999 57.972H75.7959L79.8279 71.94L83.7159 57.972H90.4839L82.7079 84H77.4879L73.3479 69.852L69.2079 84H64.0599Z" fill="#B91818"/>
</svg>
