{
	"asset":{
		"generator":"Khronos glTF Blender I/O v3.6.28",
		"version":"2.0"
	},
	"extensionsUsed":[
		"KHR_materials_specular",
		"KHR_materials_ior",
		"KHR_materials_emissive_strength",
		"KHR_lights_punctual"
	],
	"extensionsRequired":[
		"KHR_lights_punctual"
	],
	"extensions":{
		"KHR_lights_punctual":{
			"lights":[
				{
					"color":[
						1,
						1,
						1
					],
					"intensity":1366,
					"type":"directional",
					"name":"Light"
				}
			]
		}
	},
	"scene":0,
	"scenes":[
		{
			"name":"Scene",
			"nodes":[
				0,
				1,
				2
			]
		}
	],
	"nodes":[
		{
			"mesh":0,
			"name":"Cube",
			"scale":[
				0.9439091086387634,
				1.0330816507339478,
				2.6307666301727295
			]
		},
		{
			"extensions":{
				"KHR_lights_punctual":{
					"light":0
				}
			},
			"name":"Light",
			"rotation":[
				-0.28416627645492554,
				0.7269423007965088,
				0.34203392267227173,
				0.5232754945755005
			],
			"translation":[
				4.076245307922363,
				23.6296329498291,
				-1.0054539442062378
			]
		},
		{
			"camera":0,
			"name":"Camera",
			"rotation":[
				-0.20997299253940582,
				0.3857799470424652,
				0.09062844514846802,
				0.8937962055206299
			],
			"translation":[
				7.358891487121582,
				4.958309173583984,
				6.925790786743164
			]
		}
	],
	"cameras":[
		{
			"name":"Camera",
			"perspective":{
				"aspectRatio":1.7777777777777777,
				"yfov":0.39959648408210363,
				"zfar":100,
				"znear":0.10000000149011612
			},
			"type":"perspective"
		}
	],
	"materials":[
		{
			"doubleSided":true,
			"extensions":{
				"KHR_materials_specular":{
					"specularColorFactor":[
						0,
						0,
						0
					]
				},
				"KHR_materials_ior":{
					"ior":1.4500000476837158
				}
			},
			"name":"metal",
			"pbrMetallicRoughness":{
				"baseColorFactor":[
					0.5542144775390625,
					0.5542144775390625,
					0.5542144775390625,
					1
				],
				"metallicFactor":0,
				"roughnessFactor":0.11822660267353058
			}
		},
		{
			"alphaMode":"BLEND",
			"doubleSided":true,
			"name":"Glass",
			"pbrMetallicRoughness":{
				"baseColorFactor":[
					0.0013764376053586602,
					0.014126544818282127,
					0.06838017702102661,
					0.949999988079071
				],
				"metallicFactor":0,
				"roughnessFactor":0.5
			}
		},
		{
			"doubleSided":true,
			"extensions":{
				"KHR_materials_specular":{
					"specularColorFactor":[
						0,
						0,
						0
					]
				},
				"KHR_materials_ior":{
					"ior":1.4500000476837158
				}
			},
			"name":"Color",
			"pbrMetallicRoughness":{
				"baseColorFactor":[
					0,
					0.13286827504634857,
					0.09084171801805496,
					1
				],
				"metallicFactor":0,
				"roughnessFactor":0.18719211220741272
			}
		},
		{
			"doubleSided":true,
			"emissiveFactor":[
				0,
				0.06991603970527649,
				1
			],
			"extensions":{
				"KHR_materials_emissive_strength":{
					"emissiveStrength":7
				}
			},
			"name":"Glowy",
			"pbrMetallicRoughness":{
				"baseColorFactor":[
					0,
					0.09305862337350845,
					0.7991027235984802,
					1
				],
				"metallicFactor":0,
				"roughnessFactor":0.5
			}
		}
	],
	"meshes":[
		{
			"name":"Cube.005",
			"primitives":[
				{
					"attributes":{
						"POSITION":0,
						"NORMAL":1,
						"TEXCOORD_0":2
					},
					"indices":3,
					"material":0
				},
				{
					"attributes":{
						"POSITION":4,
						"NORMAL":5,
						"TEXCOORD_0":6
					},
					"indices":7,
					"material":1
				},
				{
					"attributes":{
						"POSITION":8,
						"NORMAL":9,
						"TEXCOORD_0":10
					},
					"indices":11,
					"material":2
				},
				{
					"attributes":{
						"POSITION":12,
						"NORMAL":13,
						"TEXCOORD_0":14
					},
					"indices":15,
					"material":3
				}
			]
		}
	],
	"accessors":[
		{
			"bufferView":0,
			"componentType":5126,
			"count":653,
			"max":[
				9.60989761352539,
				5.635473728179932,
				6.231471061706543
			],
			"min":[
				-9.60989761352539,
				-4.440333366394043,
				-5.946404933929443
			],
			"type":"VEC3"
		},
		{
			"bufferView":1,
			"componentType":5126,
			"count":653,
			"type":"VEC3"
		},
		{
			"bufferView":2,
			"componentType":5126,
			"count":653,
			"type":"VEC2"
		},
		{
			"bufferView":3,
			"componentType":5123,
			"count":1068,
			"type":"SCALAR"
		},
		{
			"bufferView":4,
			"componentType":5126,
			"count":40,
			"max":[
				5.830097675323486,
				3.1324961185455322,
				0.3333333134651184
			],
			"min":[
				-5.830097675323486,
				-2.5796077251434326,
				-4.835553169250488
			],
			"type":"VEC3"
		},
		{
			"bufferView":5,
			"componentType":5126,
			"count":40,
			"type":"VEC3"
		},
		{
			"bufferView":6,
			"componentType":5126,
			"count":40,
			"type":"VEC2"
		},
		{
			"bufferView":7,
			"componentType":5123,
			"count":60,
			"type":"SCALAR"
		},
		{
			"bufferView":8,
			"componentType":5126,
			"count":230,
			"max":[
				9.60989761352539,
				5.635473728179932,
				6.231471061706543
			],
			"min":[
				-9.60989761352539,
				-4.440333366394043,
				-4.846802711486816
			],
			"type":"VEC3"
		},
		{
			"bufferView":9,
			"componentType":5126,
			"count":230,
			"type":"VEC3"
		},
		{
			"bufferView":10,
			"componentType":5126,
			"count":230,
			"type":"VEC2"
		},
		{
			"bufferView":11,
			"componentType":5123,
			"count":330,
			"type":"SCALAR"
		},
		{
			"bufferView":12,
			"componentType":5126,
			"count":60,
			"max":[
				3.3036532402038574,
				1.6837501525878906,
				5.375874996185303
			],
			"min":[
				-3.3036532402038574,
				-1.6837501525878906,
				4.190075874328613
			],
			"type":"VEC3"
		},
		{
			"bufferView":13,
			"componentType":5126,
			"count":60,
			"type":"VEC3"
		},
		{
			"bufferView":14,
			"componentType":5126,
			"count":60,
			"type":"VEC2"
		},
		{
			"bufferView":15,
			"componentType":5123,
			"count":96,
			"type":"SCALAR"
		}
	],
	"bufferViews":[
		{
			"buffer":0,
			"byteLength":7836,
			"byteOffset":0,
			"target":34962
		},
		{
			"buffer":0,
			"byteLength":7836,
			"byteOffset":7836,
			"target":34962
		},
		{
			"buffer":0,
			"byteLength":5224,
			"byteOffset":15672,
			"target":34962
		},
		{
			"buffer":0,
			"byteLength":2136,
			"byteOffset":20896,
			"target":34963
		},
		{
			"buffer":0,
			"byteLength":480,
			"byteOffset":23032,
			"target":34962
		},
		{
			"buffer":0,
			"byteLength":480,
			"byteOffset":23512,
			"target":34962
		},
		{
			"buffer":0,
			"byteLength":320,
			"byteOffset":23992,
			"target":34962
		},
		{
			"buffer":0,
			"byteLength":120,
			"byteOffset":24312,
			"target":34963
		},
		{
			"buffer":0,
			"byteLength":2760,
			"byteOffset":24432,
			"target":34962
		},
		{
			"buffer":0,
			"byteLength":2760,
			"byteOffset":27192,
			"target":34962
		},
		{
			"buffer":0,
			"byteLength":1840,
			"byteOffset":29952,
			"target":34962
		},
		{
			"buffer":0,
			"byteLength":660,
			"byteOffset":31792,
			"target":34963
		},
		{
			"buffer":0,
			"byteLength":720,
			"byteOffset":32452,
			"target":34962
		},
		{
			"buffer":0,
			"byteLength":720,
			"byteOffset":33172,
			"target":34962
		},
		{
			"buffer":0,
			"byteLength":480,
			"byteOffset":33892,
			"target":34962
		},
		{
			"buffer":0,
			"byteLength":192,
			"byteOffset":34372,
			"target":34963
		}
	],
	"buffers":[
		{
			"byteLength":34564,
			"uri":"AnotherSpaceShip-c34516da3f650e0ee0d9adbc84287882.bin"
		}
	]
}
