{
	"asset":{
		"generator":"Khronos glTF Blender I/O v5.1.20",
		"version":"2.0"
	},
	"extensionsUsed":[
		"KHR_materials_emissive_strength",
		"KHR_materials_specular",
		"KHR_materials_ior",
		"KHR_lights_punctual"
	],
	"extensionsRequired":[
		"KHR_lights_punctual"
	],
	"extensions":{
		"KHR_lights_punctual":{
			"lights":[
				{
					"color":[
						1,
						1,
						1
					],
					"intensity":5,
					"type":"directional",
					"name":"Light"
				}
			]
		}
	},
	"scene":0,
	"scenes":[
		{
			"name":"Scene",
			"nodes":[
				0,
				1,
				2,
				3,
				4,
				5,
				6,
				7,
				8,
				9,
				10
			]
		}
	],
	"nodes":[
		{
			"mesh":0,
			"name":"Cube.002",
			"translation":[
				20.969970703125,
				0.27088573575019836,
				-0.008514255285263062
			]
		},
		{
			"mesh":1,
			"name":"Cube.003",
			"translation":[
				20.969970703125,
				-0.19505243003368378,
				0.424634724855423
			]
		},
		{
			"mesh":2,
			"name":"Cube.004",
			"rotation":[
				0,
				0,
				1,
				4.371138828673793e-08
			],
			"translation":[
				20.969970703125,
				0.27088573575019836,
				0.440323144197464
			]
		},
		{
			"mesh":3,
			"name":"Cube.005",
			"rotation":[
				0,
				0,
				1,
				4.371138828673793e-08
			],
			"translation":[
				20.969970703125,
				-0.19505243003368378,
				0.03319782018661499
			]
		},
		{
			"extensions":{
				"KHR_lights_punctual":{
					"light":0
				}
			},
			"name":"Light",
			"rotation":[
				-0.35936686396598816,
				0.8643773794174194,
				0.04356426000595093,
				0.34901225566864014
			],
			"translation":[
				2.966320037841797,
				5.903861999511719,
				-5.624432563781738
			]
		},
		{
			"camera":0,
			"name":"Camera",
			"rotation":[
				-0.14530964195728302,
				0.10168960690498352,
				0.015015965327620506,
				0.9840319752693176
			],
			"translation":[
				3.103768825531006,
				5.181567192077637,
				16.467687606811523
			]
		},
		{
			"mesh":4,
			"name":"Cube",
			"translation":[
				20.752307891845703,
				0,
				0
			]
		},
		{
			"mesh":5,
			"name":"Cube.001"
		},
		{
			"mesh":6,
			"name":"Sphere.001",
			"rotation":[
				0,
				0,
				-0.7071068286895752,
				0.7071068286895752
			],
			"scale":[
				1.172058343887329,
				1.172058343887329,
				1.172058343887329
			],
			"translation":[
				20.752307891845703,
				0,
				0
			]
		},
		{
			"mesh":7,
			"name":"Sphere.002",
			"rotation":[
				0,
				0,
				-0.7071068286895752,
				0.7071068286895752
			],
			"scale":[
				1.2581514120101929,
				1.2581514120101929,
				1.2581514120101929
			]
		},
		{
			"mesh":8,
			"name":"Cube.009",
			"rotation":[
				0,
				0,
				1,
				4.371138828673793e-08
			],
			"translation":[
				0,
				-0.19505243003368378,
				0.03319782018661499
			]
		}
	],
	"cameras":[
		{
			"name":"Camera",
			"perspective":{
				"aspectRatio":1.7777777777777777,
				"yfov":0.39959648408210363,
				"zfar":100,
				"znear":0.10000000149011612
			},
			"type":"perspective"
		}
	],
	"materials":[
		{
			"doubleSided":true,
			"name":"main.001",
			"pbrMetallicRoughness":{
				"baseColorFactor":[
					0,
					0,
					0,
					1
				],
				"metallicFactor":0.37931033968925476,
				"roughnessFactor":0.39162564277648926
			}
		},
		{
			"doubleSided":true,
			"name":"main",
			"pbrMetallicRoughness":{
				"baseColorFactor":[
					0,
					0,
					0,
					1
				],
				"metallicFactor":0.37931033968925476,
				"roughnessFactor":0.39162564277648926
			}
		},
		{
			"doubleSided":true,
			"emissiveFactor":[
				0.07227123528718948,
				0.01444343850016594,
				1
			],
			"extensions":{
				"KHR_materials_emissive_strength":{
					"emissiveStrength":13.800000190734863
				},
				"KHR_materials_specular":{
					"specularFactor":0
				},
				"KHR_materials_ior":{
					"ior":1.4500000476837158
				}
			},
			"name":"glow",
			"pbrMetallicRoughness":{
				"baseColorFactor":[
					0,
					0,
					0,
					1
				],
				"metallicFactor":0
			}
		}
	],
	"meshes":[
		{
			"name":"Cube.021",
			"primitives":[
				{
					"attributes":{
						"POSITION":0,
						"NORMAL":1,
						"TEXCOORD_0":2,
						"TANGENT":3
					},
					"indices":4,
					"material":0
				}
			]
		},
		{
			"name":"Cube.022",
			"primitives":[
				{
					"attributes":{
						"POSITION":5,
						"NORMAL":6,
						"TEXCOORD_0":7,
						"TANGENT":8
					},
					"indices":4,
					"material":0
				}
			]
		},
		{
			"name":"Cube.023",
			"primitives":[
				{
					"attributes":{
						"POSITION":9,
						"NORMAL":10,
						"TEXCOORD_0":11,
						"TANGENT":12
					},
					"indices":4,
					"material":0
				}
			]
		},
		{
			"name":"Cube.024",
			"primitives":[
				{
					"attributes":{
						"POSITION":13,
						"NORMAL":14,
						"TEXCOORD_0":15,
						"TANGENT":16
					},
					"indices":4,
					"material":0
				}
			]
		},
		{
			"name":"Cube.002",
			"primitives":[
				{
					"attributes":{
						"POSITION":17,
						"NORMAL":18,
						"TEXCOORD_0":19
					},
					"indices":20
				}
			]
		},
		{
			"name":"Cube.020",
			"primitives":[
				{
					"attributes":{
						"POSITION":21,
						"NORMAL":22,
						"TEXCOORD_0":23
					},
					"indices":24,
					"material":1
				}
			]
		},
		{
			"name":"Sphere.001",
			"primitives":[
				{
					"attributes":{
						"POSITION":25,
						"NORMAL":26,
						"TEXCOORD_0":27
					},
					"indices":28
				}
			]
		},
		{
			"name":"Sphere.002",
			"primitives":[
				{
					"attributes":{
						"POSITION":29,
						"NORMAL":30,
						"TEXCOORD_0":31
					},
					"indices":32,
					"material":1
				},
				{
					"attributes":{
						"POSITION":33,
						"NORMAL":34,
						"TEXCOORD_0":35
					},
					"indices":36,
					"material":2
				}
			]
		},
		{
			"name":"Cube.016",
			"primitives":[
				{
					"attributes":{
						"POSITION":37,
						"NORMAL":38,
						"TEXCOORD_0":39,
						"TANGENT":40
					},
					"indices":41,
					"material":1
				},
				{
					"attributes":{
						"POSITION":42,
						"NORMAL":43,
						"TEXCOORD_0":44,
						"TANGENT":45
					},
					"indices":46,
					"material":2
				}
			]
		}
	],
	"accessors":[
		{
			"bufferView":0,
			"componentType":5126,
			"count":96,
			"max":[
				1.9698874950408936,
				0.7662500143051147,
				1.3793082237243652
			],
			"min":[
				-1.9698874950408936,
				0.43990272283554077,
				0.03871661424636841
			],
			"type":"VEC3"
		},
		{
			"bufferView":1,
			"componentType":5126,
			"count":96,
			"type":"VEC3"
		},
		{
			"bufferView":2,
			"componentType":5126,
			"count":96,
			"type":"VEC2"
		},
		{
			"bufferView":3,
			"componentType":5126,
			"count":96,
			"type":"VEC4"
		},
		{
			"bufferView":4,
			"componentType":5123,
			"count":168,
			"type":"SCALAR"
		},
		{
			"bufferView":5,
			"componentType":5126,
			"count":96,
			"max":[
				1.9698874950408936,
				0.7662500143051147,
				1.4387820959091187
			],
			"min":[
				-1.9698874950408936,
				0.43990278244018555,
				0.09819048643112183
			],
			"type":"VEC3"
		},
		{
			"bufferView":6,
			"componentType":5126,
			"count":96,
			"type":"VEC3"
		},
		{
			"bufferView":7,
			"componentType":5126,
			"count":96,
			"type":"VEC2"
		},
		{
			"bufferView":8,
			"componentType":5126,
			"count":96,
			"type":"VEC4"
		},
		{
			"bufferView":9,
			"componentType":5126,
			"count":96,
			"max":[
				1.9698892831802368,
				0.7662498950958252,
				1.4607373476028442
			],
			"min":[
				-1.9698892831802368,
				0.43990272283554077,
				0.12014571577310562
			],
			"type":"VEC3"
		},
		{
			"bufferView":10,
			"componentType":5126,
			"count":96,
			"type":"VEC3"
		},
		{
			"bufferView":11,
			"componentType":5126,
			"count":96,
			"type":"VEC2"
		},
		{
			"bufferView":12,
			"componentType":5126,
			"count":96,
			"type":"VEC4"
		},
		{
			"bufferView":13,
			"componentType":5126,
			"count":96,
			"max":[
				1.9698892831802368,
				0.7662498950958252,
				1.3793082237243652
			],
			"min":[
				-1.9698892831802368,
				0.43990275263786316,
				0.03871661424636841
			],
			"type":"VEC3"
		},
		{
			"bufferView":14,
			"componentType":5126,
			"count":96,
			"type":"VEC3"
		},
		{
			"bufferView":15,
			"componentType":5126,
			"count":96,
			"type":"VEC2"
		},
		{
			"bufferView":16,
			"componentType":5126,
			"count":96,
			"type":"VEC4"
		},
		{
			"bufferView":17,
			"componentType":5126,
			"count":422,
			"max":[
				2.1081111431121826,
				3.067645311355591,
				3.5441665649414062
			],
			"min":[
				-2.1081111431121826,
				-3.067645311355591,
				-3.5441665649414062
			],
			"type":"VEC3"
		},
		{
			"bufferView":18,
			"componentType":5126,
			"count":422,
			"type":"VEC3"
		},
		{
			"bufferView":19,
			"componentType":5126,
			"count":422,
			"type":"VEC2"
		},
		{
			"bufferView":20,
			"componentType":5123,
			"count":696,
			"type":"SCALAR"
		},
		{
			"bufferView":21,
			"componentType":5126,
			"count":486,
			"max":[
				2.1081111431121826,
				3.067645311355591,
				3.5441665649414062
			],
			"min":[
				-2.1081111431121826,
				-3.067645311355591,
				-3.5441665649414062
			],
			"type":"VEC3"
		},
		{
			"bufferView":22,
			"componentType":5126,
			"count":486,
			"type":"VEC3"
		},
		{
			"bufferView":23,
			"componentType":5126,
			"count":486,
			"type":"VEC2"
		},
		{
			"bufferView":24,
			"componentType":5123,
			"count":792,
			"type":"SCALAR"
		},
		{
			"bufferView":25,
			"componentType":5126,
			"count":3144,
			"max":[
				0.9999997615814209,
				0.8698045015335083,
				0.9999993443489075
			],
			"min":[
				-0.9999989867210388,
				-0.8698045015335083,
				-1
			],
			"type":"VEC3"
		},
		{
			"bufferView":26,
			"componentType":5126,
			"count":3144,
			"type":"VEC3"
		},
		{
			"bufferView":27,
			"componentType":5126,
			"count":3144,
			"type":"VEC2"
		},
		{
			"bufferView":28,
			"componentType":5123,
			"count":6120,
			"type":"SCALAR"
		},
		{
			"bufferView":29,
			"componentType":5126,
			"count":940,
			"max":[
				0.9999997615814209,
				0.8698045015335083,
				0.9999993443489075
			],
			"min":[
				-0.9999989867210388,
				-0.8698045015335083,
				-1
			],
			"type":"VEC3"
		},
		{
			"bufferView":30,
			"componentType":5126,
			"count":940,
			"type":"VEC3"
		},
		{
			"bufferView":31,
			"componentType":5126,
			"count":940,
			"type":"VEC2"
		},
		{
			"bufferView":32,
			"componentType":5123,
			"count":3546,
			"type":"SCALAR"
		},
		{
			"bufferView":33,
			"componentType":5126,
			"count":544,
			"max":[
				0.8014707565307617,
				0.8698045015335083,
				0.8014702796936035
			],
			"min":[
				-0.8014699220657349,
				-0.8698045015335083,
				-0.8014708757400513
			],
			"type":"VEC3"
		},
		{
			"bufferView":34,
			"componentType":5126,
			"count":544,
			"type":"VEC3"
		},
		{
			"bufferView":35,
			"componentType":5126,
			"count":544,
			"type":"VEC2"
		},
		{
			"bufferView":36,
			"componentType":5123,
			"count":1716,
			"type":"SCALAR"
		},
		{
			"bufferView":37,
			"componentType":5126,
			"count":352,
			"max":[
				1.9698892831802368,
				0.7662498950958252,
				1.8678627014160156
			],
			"min":[
				-1.9698892831802368,
				-1.23218834400177,
				-0.0029954612255096436
			],
			"type":"VEC3"
		},
		{
			"bufferView":38,
			"componentType":5126,
			"count":352,
			"type":"VEC3"
		},
		{
			"bufferView":39,
			"componentType":5126,
			"count":352,
			"type":"VEC2"
		},
		{
			"bufferView":40,
			"componentType":5126,
			"count":352,
			"type":"VEC4"
		},
		{
			"bufferView":41,
			"componentType":5123,
			"count":624,
			"type":"SCALAR"
		},
		{
			"bufferView":42,
			"componentType":5126,
			"count":32,
			"max":[
				1.934583306312561,
				0.7323098182678223,
				1.684295654296875
			],
			"min":[
				-1.934583306312561,
				-1.198248267173767,
				0.895649790763855
			],
			"type":"VEC3"
		},
		{
			"bufferView":43,
			"componentType":5126,
			"count":32,
			"type":"VEC3"
		},
		{
			"bufferView":44,
			"componentType":5126,
			"count":32,
			"type":"VEC2"
		},
		{
			"bufferView":45,
			"componentType":5126,
			"count":32,
			"type":"VEC4"
		},
		{
			"bufferView":46,
			"componentType":5123,
			"count":48,
			"type":"SCALAR"
		}
	],
	"bufferViews":[
		{
			"buffer":0,
			"byteLength":1152,
			"byteOffset":0,
			"target":34962
		},
		{
			"buffer":0,
			"byteLength":1152,
			"byteOffset":1152,
			"target":34962
		},
		{
			"buffer":0,
			"byteLength":768,
			"byteOffset":2304,
			"target":34962
		},
		{
			"buffer":0,
			"byteLength":1536,
			"byteOffset":3072,
			"target":34962
		},
		{
			"buffer":0,
			"byteLength":336,
			"byteOffset":4608,
			"target":34963
		},
		{
			"buffer":0,
			"byteLength":1152,
			"byteOffset":4944,
			"target":34962
		},
		{
			"buffer":0,
			"byteLength":1152,
			"byteOffset":6096,
			"target":34962
		},
		{
			"buffer":0,
			"byteLength":768,
			"byteOffset":7248,
			"target":34962
		},
		{
			"buffer":0,
			"byteLength":1536,
			"byteOffset":8016,
			"target":34962
		},
		{
			"buffer":0,
			"byteLength":1152,
			"byteOffset":9552,
			"target":34962
		},
		{
			"buffer":0,
			"byteLength":1152,
			"byteOffset":10704,
			"target":34962
		},
		{
			"buffer":0,
			"byteLength":768,
			"byteOffset":11856,
			"target":34962
		},
		{
			"buffer":0,
			"byteLength":1536,
			"byteOffset":12624,
			"target":34962
		},
		{
			"buffer":0,
			"byteLength":1152,
			"byteOffset":14160,
			"target":34962
		},
		{
			"buffer":0,
			"byteLength":1152,
			"byteOffset":15312,
			"target":34962
		},
		{
			"buffer":0,
			"byteLength":768,
			"byteOffset":16464,
			"target":34962
		},
		{
			"buffer":0,
			"byteLength":1536,
			"byteOffset":17232,
			"target":34962
		},
		{
			"buffer":0,
			"byteLength":5064,
			"byteOffset":18768,
			"target":34962
		},
		{
			"buffer":0,
			"byteLength":5064,
			"byteOffset":23832,
			"target":34962
		},
		{
			"buffer":0,
			"byteLength":3376,
			"byteOffset":28896,
			"target":34962
		},
		{
			"buffer":0,
			"byteLength":1392,
			"byteOffset":32272,
			"target":34963
		},
		{
			"buffer":0,
			"byteLength":5832,
			"byteOffset":33664,
			"target":34962
		},
		{
			"buffer":0,
			"byteLength":5832,
			"byteOffset":39496,
			"target":34962
		},
		{
			"buffer":0,
			"byteLength":3888,
			"byteOffset":45328,
			"target":34962
		},
		{
			"buffer":0,
			"byteLength":1584,
			"byteOffset":49216,
			"target":34963
		},
		{
			"buffer":0,
			"byteLength":37728,
			"byteOffset":50800,
			"target":34962
		},
		{
			"buffer":0,
			"byteLength":37728,
			"byteOffset":88528,
			"target":34962
		},
		{
			"buffer":0,
			"byteLength":25152,
			"byteOffset":126256,
			"target":34962
		},
		{
			"buffer":0,
			"byteLength":12240,
			"byteOffset":151408,
			"target":34963
		},
		{
			"buffer":0,
			"byteLength":11280,
			"byteOffset":163648,
			"target":34962
		},
		{
			"buffer":0,
			"byteLength":11280,
			"byteOffset":174928,
			"target":34962
		},
		{
			"buffer":0,
			"byteLength":7520,
			"byteOffset":186208,
			"target":34962
		},
		{
			"buffer":0,
			"byteLength":7092,
			"byteOffset":193728,
			"target":34963
		},
		{
			"buffer":0,
			"byteLength":6528,
			"byteOffset":200820,
			"target":34962
		},
		{
			"buffer":0,
			"byteLength":6528,
			"byteOffset":207348,
			"target":34962
		},
		{
			"buffer":0,
			"byteLength":4352,
			"byteOffset":213876,
			"target":34962
		},
		{
			"buffer":0,
			"byteLength":3432,
			"byteOffset":218228,
			"target":34963
		},
		{
			"buffer":0,
			"byteLength":4224,
			"byteOffset":221660,
			"target":34962
		},
		{
			"buffer":0,
			"byteLength":4224,
			"byteOffset":225884,
			"target":34962
		},
		{
			"buffer":0,
			"byteLength":2816,
			"byteOffset":230108,
			"target":34962
		},
		{
			"buffer":0,
			"byteLength":5632,
			"byteOffset":232924,
			"target":34962
		},
		{
			"buffer":0,
			"byteLength":1248,
			"byteOffset":238556,
			"target":34963
		},
		{
			"buffer":0,
			"byteLength":384,
			"byteOffset":239804,
			"target":34962
		},
		{
			"buffer":0,
			"byteLength":384,
			"byteOffset":240188,
			"target":34962
		},
		{
			"buffer":0,
			"byteLength":256,
			"byteOffset":240572,
			"target":34962
		},
		{
			"buffer":0,
			"byteLength":512,
			"byteOffset":240828,
			"target":34962
		},
		{
			"buffer":0,
			"byteLength":96,
			"byteOffset":241340,
			"target":34963
		}
	],
	"buffers":[
		{
			"byteLength":241436,
			"uri":"EU6.1-45324f67bde79fe3875c0144a4b9d747.bin"
		}
	]
}
