{
	"asset":{
		"generator":"Khronos glTF Blender I/O v3.6.28",
		"version":"2.0"
	},
	"extensionsUsed":[
		"KHR_lights_punctual",
		"KHR_materials_specular",
		"KHR_materials_ior",
		"KHR_materials_emissive_strength"
	],
	"extensionsRequired":[
		"KHR_lights_punctual"
	],
	"extensions":{
		"KHR_lights_punctual":{
			"lights":[
				{
					"color":[
						1,
						1,
						1
					],
					"intensity":6830,
					"type":"directional",
					"name":"Light"
				}
			]
		}
	},
	"scene":0,
	"scenes":[
		{
			"name":"Scene",
			"nodes":[
				0,
				1,
				2
			]
		}
	],
	"nodes":[
		{
			"extensions":{
				"KHR_lights_punctual":{
					"light":0
				}
			},
			"name":"Light",
			"rotation":[
				-0.5415085554122925,
				0.17761319875717163,
				0.7940424680709839,
				0.21146778762340546
			],
			"translation":[
				4.076245307922363,
				5.903861999511719,
				-1.0054539442062378
			]
		},
		{
			"camera":0,
			"name":"Camera",
			"rotation":[
				-0.21104638278484344,
				-0.37501680850982666,
				-0.08809994161128998,
				0.898365318775177
			],
			"translation":[
				-17.836341857910156,
				14.214280128479004,
				20.876625061035156
			]
		},
		{
			"mesh":0,
			"name":"Cylinder",
			"rotation":[
				0,
				0,
				-0.7071068286895752,
				0.7071068286895752
			],
			"scale":[
				0.9387759566307068,
				2.8974177837371826,
				0.9387759566307068
			]
		}
	],
	"cameras":[
		{
			"name":"Camera",
			"perspective":{
				"aspectRatio":1.7777777777777777,
				"yfov":0.39959648408210363,
				"zfar":100,
				"znear":0.10000000149011612
			},
			"type":"perspective"
		}
	],
	"materials":[
		{
			"doubleSided":true,
			"name":"main",
			"pbrMetallicRoughness":{
				"baseColorFactor":[
					0.800000011920929,
					0.800000011920929,
					0.800000011920929,
					1
				],
				"metallicFactor":0.35467982292175293,
				"roughnessFactor":0.5
			}
		},
		{
			"doubleSided":true,
			"extensions":{
				"KHR_materials_specular":{
					"specularColorFactor":[
						2.371357614441398,
						2.371357614441398,
						2.371357614441398
					]
				},
				"KHR_materials_ior":{
					"ior":1.4500000476837158
				}
			},
			"name":"metal",
			"pbrMetallicRoughness":{
				"baseColorFactor":[
					0.03967854753136635,
					0.03967854753136635,
					0.03967854753136635,
					1
				],
				"metallicFactor":0.5911329984664917,
				"roughnessFactor":0.5197044610977173
			}
		},
		{
			"doubleSided":true,
			"extensions":{
				"KHR_materials_specular":{
					"specularColorFactor":[
						2.371357614441398,
						2.371357614441398,
						2.371357614441398
					]
				},
				"KHR_materials_ior":{
					"ior":1.4500000476837158
				}
			},
			"name":"cockPit",
			"pbrMetallicRoughness":{
				"baseColorFactor":[
					0.1473156213760376,
					0.1473156213760376,
					0.1473156213760376,
					1
				],
				"roughnessFactor":0.10591132193803787
			}
		},
		{
			"doubleSided":true,
			"emissiveFactor":[
				0,
				0.024382634088397026,
				1
			],
			"extensions":{
				"KHR_materials_emissive_strength":{
					"emissiveStrength":145.19998168945312
				}
			},
			"name":"glowy",
			"pbrMetallicRoughness":{
				"baseColorFactor":[
					0.008022583089768887,
					0.1412629634141922,
					0.799102783203125,
					1
				],
				"metallicFactor":0,
				"roughnessFactor":0.5
			}
		},
		{
			"doubleSided":true,
			"name":"accent",
			"pbrMetallicRoughness":{
				"baseColorFactor":[
					0.13758160173892975,
					0.091407410800457,
					0.04514477029442787,
					1
				],
				"metallicFactor":0,
				"roughnessFactor":0.5
			}
		},
		{
			"doubleSided":true,
			"name":"black",
			"pbrMetallicRoughness":{
				"baseColorFactor":[
					0.021978311240673065,
					0.021978311240673065,
					0.021978311240673065,
					1
				],
				"metallicFactor":0,
				"roughnessFactor":0.5
			}
		}
	],
	"meshes":[
		{
			"name":"Cylinder.003",
			"primitives":[
				{
					"attributes":{
						"POSITION":0,
						"NORMAL":1,
						"TEXCOORD_0":2
					},
					"indices":3,
					"material":0
				},
				{
					"attributes":{
						"POSITION":4,
						"NORMAL":5,
						"TEXCOORD_0":6
					},
					"indices":7,
					"material":1
				},
				{
					"attributes":{
						"POSITION":8,
						"NORMAL":9,
						"TEXCOORD_0":10
					},
					"indices":11,
					"material":2
				},
				{
					"attributes":{
						"POSITION":12,
						"NORMAL":13,
						"TEXCOORD_0":14
					},
					"indices":15,
					"material":3
				},
				{
					"attributes":{
						"POSITION":16,
						"NORMAL":17,
						"TEXCOORD_0":18
					},
					"indices":19,
					"material":4
				},
				{
					"attributes":{
						"POSITION":20,
						"NORMAL":21,
						"TEXCOORD_0":22
					},
					"indices":23,
					"material":5
				}
			]
		}
	],
	"accessors":[
		{
			"bufferView":0,
			"componentType":5126,
			"count":264,
			"max":[
				0.9933730363845825,
				2.7881925106048584,
				8.505882263183594
			],
			"min":[
				-1.1827830076217651,
				-1.6846187114715576,
				-8.505882263183594
			],
			"type":"VEC3"
		},
		{
			"bufferView":1,
			"componentType":5126,
			"count":264,
			"type":"VEC3"
		},
		{
			"bufferView":2,
			"componentType":5126,
			"count":264,
			"type":"VEC2"
		},
		{
			"bufferView":3,
			"componentType":5123,
			"count":612,
			"type":"SCALAR"
		},
		{
			"bufferView":4,
			"componentType":5126,
			"count":1248,
			"max":[
				0.8487370610237122,
				2.950000286102295,
				8.725932121276855
			],
			"min":[
				-1.0783623456954956,
				-0.09185254573822021,
				-8.725932121276855
			],
			"type":"VEC3"
		},
		{
			"bufferView":5,
			"componentType":5126,
			"count":1248,
			"type":"VEC3"
		},
		{
			"bufferView":6,
			"componentType":5126,
			"count":1248,
			"type":"VEC2"
		},
		{
			"bufferView":7,
			"componentType":5123,
			"count":3528,
			"type":"SCALAR"
		},
		{
			"bufferView":8,
			"componentType":5126,
			"count":22,
			"max":[
				-0.6909022331237793,
				1.6301103830337524,
				1.0633138418197632
			],
			"min":[
				-1.3776549100875854,
				-0.20176208019256592,
				-1.063313364982605
			],
			"type":"VEC3"
		},
		{
			"bufferView":9,
			"componentType":5126,
			"count":22,
			"type":"VEC3"
		},
		{
			"bufferView":10,
			"componentType":5126,
			"count":22,
			"type":"VEC2"
		},
		{
			"bufferView":11,
			"componentType":5123,
			"count":42,
			"type":"SCALAR"
		},
		{
			"bufferView":12,
			"componentType":5126,
			"count":464,
			"max":[
				0.7500001788139343,
				2.950000286102295,
				8.424420356750488
			],
			"min":[
				-0.9551606178283691,
				-0.09185254573822021,
				-8.424420356750488
			],
			"type":"VEC3"
		},
		{
			"bufferView":13,
			"componentType":5126,
			"count":464,
			"type":"VEC3"
		},
		{
			"bufferView":14,
			"componentType":5126,
			"count":464,
			"type":"VEC2"
		},
		{
			"bufferView":15,
			"componentType":5123,
			"count":1350,
			"type":"SCALAR"
		},
		{
			"bufferView":16,
			"componentType":5126,
			"count":402,
			"max":[
				0.7766576409339905,
				2.8306219577789307,
				8.765785217285156
			],
			"min":[
				-2.0615313053131104,
				-2.273989200592041,
				-8.765785217285156
			],
			"type":"VEC3"
		},
		{
			"bufferView":17,
			"componentType":5126,
			"count":402,
			"type":"VEC3"
		},
		{
			"bufferView":18,
			"componentType":5126,
			"count":402,
			"type":"VEC2"
		},
		{
			"bufferView":19,
			"componentType":5123,
			"count":1008,
			"type":"SCALAR"
		},
		{
			"bufferView":20,
			"componentType":5126,
			"count":40,
			"max":[
				0.38287079334259033,
				0.18190622329711914,
				1.8827370405197144
			],
			"min":[
				-0.340730756521225,
				-0.32090044021606445,
				-1.8827365636825562
			],
			"type":"VEC3"
		},
		{
			"bufferView":21,
			"componentType":5126,
			"count":40,
			"type":"VEC3"
		},
		{
			"bufferView":22,
			"componentType":5126,
			"count":40,
			"type":"VEC2"
		},
		{
			"bufferView":23,
			"componentType":5123,
			"count":60,
			"type":"SCALAR"
		}
	],
	"bufferViews":[
		{
			"buffer":0,
			"byteLength":3168,
			"byteOffset":0,
			"target":34962
		},
		{
			"buffer":0,
			"byteLength":3168,
			"byteOffset":3168,
			"target":34962
		},
		{
			"buffer":0,
			"byteLength":2112,
			"byteOffset":6336,
			"target":34962
		},
		{
			"buffer":0,
			"byteLength":1224,
			"byteOffset":8448,
			"target":34963
		},
		{
			"buffer":0,
			"byteLength":14976,
			"byteOffset":9672,
			"target":34962
		},
		{
			"buffer":0,
			"byteLength":14976,
			"byteOffset":24648,
			"target":34962
		},
		{
			"buffer":0,
			"byteLength":9984,
			"byteOffset":39624,
			"target":34962
		},
		{
			"buffer":0,
			"byteLength":7056,
			"byteOffset":49608,
			"target":34963
		},
		{
			"buffer":0,
			"byteLength":264,
			"byteOffset":56664,
			"target":34962
		},
		{
			"buffer":0,
			"byteLength":264,
			"byteOffset":56928,
			"target":34962
		},
		{
			"buffer":0,
			"byteLength":176,
			"byteOffset":57192,
			"target":34962
		},
		{
			"buffer":0,
			"byteLength":84,
			"byteOffset":57368,
			"target":34963
		},
		{
			"buffer":0,
			"byteLength":5568,
			"byteOffset":57452,
			"target":34962
		},
		{
			"buffer":0,
			"byteLength":5568,
			"byteOffset":63020,
			"target":34962
		},
		{
			"buffer":0,
			"byteLength":3712,
			"byteOffset":68588,
			"target":34962
		},
		{
			"buffer":0,
			"byteLength":2700,
			"byteOffset":72300,
			"target":34963
		},
		{
			"buffer":0,
			"byteLength":4824,
			"byteOffset":75000,
			"target":34962
		},
		{
			"buffer":0,
			"byteLength":4824,
			"byteOffset":79824,
			"target":34962
		},
		{
			"buffer":0,
			"byteLength":3216,
			"byteOffset":84648,
			"target":34962
		},
		{
			"buffer":0,
			"byteLength":2016,
			"byteOffset":87864,
			"target":34963
		},
		{
			"buffer":0,
			"byteLength":480,
			"byteOffset":89880,
			"target":34962
		},
		{
			"buffer":0,
			"byteLength":480,
			"byteOffset":90360,
			"target":34962
		},
		{
			"buffer":0,
			"byteLength":320,
			"byteOffset":90840,
			"target":34962
		},
		{
			"buffer":0,
			"byteLength":120,
			"byteOffset":91160,
			"target":34963
		}
	],
	"buffers":[
		{
			"byteLength":91280,
			"uri":"kitminApprovedSpaceship%20%28joined%29-94cb62cccc7b76829a058880a0b323ba.bin"
		}
	]
}
