{
	"asset":{
		"generator":"Khronos glTF Blender I/O v3.6.28",
		"version":"2.0"
	},
	"extensionsUsed":[
		"KHR_materials_specular",
		"KHR_materials_ior",
		"KHR_materials_emissive_strength"
	],
	"scene":0,
	"scenes":[
		{
			"name":"Scene",
			"nodes":[
				0,
				1
			]
		}
	],
	"nodes":[
		{
			"camera":0,
			"name":"Camera",
			"rotation":[
				-0.20997299253940582,
				0.3857799470424652,
				0.09062844514846802,
				0.8937962055206299
			],
			"translation":[
				7.358891487121582,
				4.958309173583984,
				6.925790786743164
			]
		},
		{
			"mesh":0,
			"name":"Cylinder.001",
			"scale":[
				23.780906677246094,
				3.5,
				23.780906677246094
			]
		}
	],
	"cameras":[
		{
			"name":"Camera",
			"perspective":{
				"aspectRatio":1.7777777777777777,
				"yfov":0.39959648408210363,
				"zfar":100,
				"znear":0.10000000149011612
			},
			"type":"perspective"
		}
	],
	"materials":[
		{
			"doubleSided":true,
			"extensions":{
				"KHR_materials_specular":{
					"specularColorFactor":[
						0,
						0,
						0
					]
				},
				"KHR_materials_ior":{
					"ior":1.4500000476837158
				}
			},
			"name":"Main Metal",
			"pbrMetallicRoughness":{
				"baseColorFactor":[
					0.050363689661026,
					0.05291008949279785,
					0.07500000298023224,
					1
				],
				"metallicFactor":0.800000011920929,
				"roughnessFactor":0.5
			}
		},
		{
			"doubleSided":true,
			"emissiveFactor":[
				0,
				0.40000009536743164,
				1
			],
			"extensions":{
				"KHR_materials_emissive_strength":{
					"emissiveStrength":5
				}
			},
			"name":"Glowy Mqaterial",
			"pbrMetallicRoughness":{
				"baseColorFactor":[
					0,
					0.2450128197669983,
					0.6038274168968201,
					1
				],
				"metallicFactor":0,
				"roughnessFactor":0.5
			}
		},
		{
			"doubleSided":true,
			"name":"Special Material",
			"pbrMetallicRoughness":{
				"baseColorFactor":[
					0.09461749345064163,
					0.09461749345064163,
					0.09461749345064163,
					1
				],
				"metallicFactor":0.800000011920929,
				"roughnessFactor":0.4000000059604645
			}
		}
	],
	"meshes":[
		{
			"name":"Cylinder.004",
			"primitives":[
				{
					"attributes":{
						"POSITION":0,
						"NORMAL":1,
						"TEXCOORD_0":2
					},
					"indices":3,
					"material":0
				},
				{
					"attributes":{
						"POSITION":4,
						"NORMAL":5,
						"TEXCOORD_0":6
					},
					"indices":7,
					"material":1
				},
				{
					"attributes":{
						"POSITION":8,
						"NORMAL":9,
						"TEXCOORD_0":10
					},
					"indices":11,
					"material":2
				}
			]
		}
	],
	"accessors":[
		{
			"bufferView":0,
			"componentType":5126,
			"count":2446,
			"max":[
				2.648193120956421,
				2.208771228790283,
				2.6500000953674316
			],
			"min":[
				-2.6500000953674316,
				-15.207223892211914,
				-2.648193120956421
			],
			"type":"VEC3"
		},
		{
			"bufferView":1,
			"componentType":5126,
			"count":2446,
			"type":"VEC3"
		},
		{
			"bufferView":2,
			"componentType":5126,
			"count":2446,
			"type":"VEC2"
		},
		{
			"bufferView":3,
			"componentType":5123,
			"count":6420,
			"type":"SCALAR"
		},
		{
			"bufferView":4,
			"componentType":5126,
			"count":712,
			"max":[
				2.590709686279297,
				2.208771228790283,
				2.551051378250122
			],
			"min":[
				-2.551051616668701,
				-15.239556312561035,
				-2.5644378662109375
			],
			"type":"VEC3"
		},
		{
			"bufferView":5,
			"componentType":5126,
			"count":712,
			"type":"VEC3"
		},
		{
			"bufferView":6,
			"componentType":5126,
			"count":712,
			"type":"VEC2"
		},
		{
			"bufferView":7,
			"componentType":5123,
			"count":2166,
			"type":"SCALAR"
		},
		{
			"bufferView":8,
			"componentType":5126,
			"count":908,
			"max":[
				2.337538003921509,
				1.8083049058914185,
				2.383333444595337
			],
			"min":[
				-2.383333444595337,
				-16.0987606048584,
				-2.337538242340088
			],
			"type":"VEC3"
		},
		{
			"bufferView":9,
			"componentType":5126,
			"count":908,
			"type":"VEC3"
		},
		{
			"bufferView":10,
			"componentType":5126,
			"count":908,
			"type":"VEC2"
		},
		{
			"bufferView":11,
			"componentType":5123,
			"count":2496,
			"type":"SCALAR"
		}
	],
	"bufferViews":[
		{
			"buffer":0,
			"byteLength":29352,
			"byteOffset":0,
			"target":34962
		},
		{
			"buffer":0,
			"byteLength":29352,
			"byteOffset":29352,
			"target":34962
		},
		{
			"buffer":0,
			"byteLength":19568,
			"byteOffset":58704,
			"target":34962
		},
		{
			"buffer":0,
			"byteLength":12840,
			"byteOffset":78272,
			"target":34963
		},
		{
			"buffer":0,
			"byteLength":8544,
			"byteOffset":91112,
			"target":34962
		},
		{
			"buffer":0,
			"byteLength":8544,
			"byteOffset":99656,
			"target":34962
		},
		{
			"buffer":0,
			"byteLength":5696,
			"byteOffset":108200,
			"target":34962
		},
		{
			"buffer":0,
			"byteLength":4332,
			"byteOffset":113896,
			"target":34963
		},
		{
			"buffer":0,
			"byteLength":10896,
			"byteOffset":118228,
			"target":34962
		},
		{
			"buffer":0,
			"byteLength":10896,
			"byteOffset":129124,
			"target":34962
		},
		{
			"buffer":0,
			"byteLength":7264,
			"byteOffset":140020,
			"target":34962
		},
		{
			"buffer":0,
			"byteLength":4992,
			"byteOffset":147284,
			"target":34963
		}
	],
	"buffers":[
		{
			"byteLength":152276,
			"uri":"newSpaceStation-cb4e2b0a2b91605ab9a254d216008edc.bin"
		}
	]
}
