{
	"asset":{
		"generator":"Khronos glTF Blender I/O v4.3.47",
		"version":"2.0"
	},
	"extensionsUsed":[
		"KHR_lights_punctual"
	],
	"extensionsRequired":[
		"KHR_lights_punctual"
	],
	"extensions":{
		"KHR_lights_punctual":{
			"lights":[
				{
					"color":[
						1,
						1,
						1
					],
					"intensity":54351.41306588226,
					"type":"point",
					"name":"Light"
				}
			]
		}
	},
	"scene":0,
	"scenes":[
		{
			"name":"Scene",
			"nodes":[
				0,
				1,
				2
			]
		}
	],
	"nodes":[
		{
			"extensions":{
				"KHR_lights_punctual":{
					"light":0
				}
			},
			"name":"Light",
			"rotation":[
				-0.28416627645492554,
				0.7269423007965088,
				0.34203392267227173,
				0.5232754945755005
			],
			"translation":[
				4.076245307922363,
				5.903861999511719,
				-1.0054539442062378
			]
		},
		{
			"camera":0,
			"name":"Camera",
			"rotation":[
				-0.20997299253940582,
				0.3857799470424652,
				0.09062844514846802,
				0.8937962055206299
			],
			"translation":[
				7.358891487121582,
				4.958309173583984,
				6.925790786743164
			]
		},
		{
			"mesh":0,
			"name":"Cylinder",
			"scale":[
				4.016279697418213,
				4.016279697418213,
				4.016279697418213
			]
		}
	],
	"cameras":[
		{
			"name":"Camera",
			"perspective":{
				"aspectRatio":1.7777777777777777,
				"yfov":0.39959648408210363,
				"zfar":100,
				"znear":0.10000000149011612
			},
			"type":"perspective"
		}
	],
	"materials":[
		{
			"doubleSided":true,
			"name":"Material",
			"pbrMetallicRoughness":{
				"metallicFactor":0,
				"roughnessFactor":0.5
			}
		},
		{
			"doubleSided":true,
			"emissiveFactor":[
				0.01764122024178505,
				0.17144107818603516,
				0.7991031408309937
			],
			"name":"Material.001",
			"pbrMetallicRoughness":{
				"baseColorFactor":[
					0.01764122024178505,
					0.17144107818603516,
					0.7991031408309937,
					1
				],
				"metallicFactor":0,
				"roughnessFactor":0.5
			}
		},
		{
			"doubleSided":true,
			"name":"Material.002",
			"pbrMetallicRoughness":{
				"baseColorFactor":[
					0.09677959978580475,
					0.800054669380188,
					0.7569830417633057,
					1
				],
				"metallicFactor":0,
				"roughnessFactor":0.5
			}
		},
		{
			"doubleSided":true,
			"name":"Material.003",
			"pbrMetallicRoughness":{
				"baseColorFactor":[
					0,
					0,
					0,
					1
				],
				"metallicFactor":0,
				"roughnessFactor":0.5
			}
		}
	],
	"meshes":[
		{
			"name":"Cylinder.001",
			"primitives":[
				{
					"attributes":{
						"POSITION":0,
						"NORMAL":1,
						"TEXCOORD_0":2,
						"TANGENT":3
					},
					"indices":4,
					"material":0
				},
				{
					"attributes":{
						"POSITION":5,
						"NORMAL":6,
						"TEXCOORD_0":7,
						"TANGENT":8
					},
					"indices":9,
					"material":1
				},
				{
					"attributes":{
						"POSITION":10,
						"NORMAL":11,
						"TEXCOORD_0":12,
						"TANGENT":13
					},
					"indices":14,
					"material":2
				},
				{
					"attributes":{
						"POSITION":15,
						"NORMAL":16,
						"TEXCOORD_0":17,
						"TANGENT":18
					},
					"indices":19,
					"material":3
				}
			]
		}
	],
	"accessors":[
		{
			"bufferView":0,
			"componentType":5126,
			"count":90116,
			"max":[
				1.2648310661315918,
				0.2740333080291748,
				1.2648310661315918
			],
			"min":[
				-1.2648310661315918,
				-0.2740333080291748,
				-1.2648310661315918
			],
			"type":"VEC3"
		},
		{
			"bufferView":1,
			"componentType":5126,
			"count":90116,
			"type":"VEC3"
		},
		{
			"bufferView":2,
			"componentType":5126,
			"count":90116,
			"type":"VEC2"
		},
		{
			"bufferView":3,
			"componentType":5126,
			"count":90116,
			"type":"VEC4"
		},
		{
			"bufferView":4,
			"componentType":5125,
			"count":232728,
			"type":"SCALAR"
		},
		{
			"bufferView":5,
			"componentType":5126,
			"count":1036,
			"max":[
				1.1335710287094116,
				0.2535385191440582,
				0.9736740589141846
			],
			"min":[
				-1.1335710287094116,
				-0.2535385191440582,
				-0.9736740589141846
			],
			"type":"VEC3"
		},
		{
			"bufferView":6,
			"componentType":5126,
			"count":1036,
			"type":"VEC3"
		},
		{
			"bufferView":7,
			"componentType":5126,
			"count":1036,
			"type":"VEC2"
		},
		{
			"bufferView":8,
			"componentType":5126,
			"count":1036,
			"type":"VEC4"
		},
		{
			"bufferView":9,
			"componentType":5123,
			"count":2544,
			"type":"SCALAR"
		},
		{
			"bufferView":10,
			"componentType":5126,
			"count":88,
			"max":[
				0.16162802278995514,
				0.08241516351699829,
				1.0230563879013062
			],
			"min":[
				-0.16162802278995514,
				-0.08241516351699829,
				-1.0230563879013062
			],
			"type":"VEC3"
		},
		{
			"bufferView":11,
			"componentType":5126,
			"count":88,
			"type":"VEC3"
		},
		{
			"bufferView":12,
			"componentType":5126,
			"count":88,
			"type":"VEC2"
		},
		{
			"bufferView":13,
			"componentType":5126,
			"count":88,
			"type":"VEC4"
		},
		{
			"bufferView":14,
			"componentType":5123,
			"count":144,
			"type":"SCALAR"
		},
		{
			"bufferView":15,
			"componentType":5126,
			"count":936,
			"max":[
				0.9807852506637573,
				0.0977553054690361,
				0.9807852506637573
			],
			"min":[
				-0.9807852506637573,
				-0.1279933601617813,
				-0.9807852506637573
			],
			"type":"VEC3"
		},
		{
			"bufferView":16,
			"componentType":5126,
			"count":936,
			"type":"VEC3"
		},
		{
			"bufferView":17,
			"componentType":5126,
			"count":936,
			"type":"VEC2"
		},
		{
			"bufferView":18,
			"componentType":5126,
			"count":936,
			"type":"VEC4"
		},
		{
			"bufferView":19,
			"componentType":5123,
			"count":2280,
			"type":"SCALAR"
		}
	],
	"bufferViews":[
		{
			"buffer":0,
			"byteLength":1081392,
			"byteOffset":0,
			"target":34962
		},
		{
			"buffer":0,
			"byteLength":1081392,
			"byteOffset":1081392,
			"target":34962
		},
		{
			"buffer":0,
			"byteLength":720928,
			"byteOffset":2162784,
			"target":34962
		},
		{
			"buffer":0,
			"byteLength":1441856,
			"byteOffset":2883712,
			"target":34962
		},
		{
			"buffer":0,
			"byteLength":930912,
			"byteOffset":4325568,
			"target":34963
		},
		{
			"buffer":0,
			"byteLength":12432,
			"byteOffset":5256480,
			"target":34962
		},
		{
			"buffer":0,
			"byteLength":12432,
			"byteOffset":5268912,
			"target":34962
		},
		{
			"buffer":0,
			"byteLength":8288,
			"byteOffset":5281344,
			"target":34962
		},
		{
			"buffer":0,
			"byteLength":16576,
			"byteOffset":5289632,
			"target":34962
		},
		{
			"buffer":0,
			"byteLength":5088,
			"byteOffset":5306208,
			"target":34963
		},
		{
			"buffer":0,
			"byteLength":1056,
			"byteOffset":5311296,
			"target":34962
		},
		{
			"buffer":0,
			"byteLength":1056,
			"byteOffset":5312352,
			"target":34962
		},
		{
			"buffer":0,
			"byteLength":704,
			"byteOffset":5313408,
			"target":34962
		},
		{
			"buffer":0,
			"byteLength":1408,
			"byteOffset":5314112,
			"target":34962
		},
		{
			"buffer":0,
			"byteLength":288,
			"byteOffset":5315520,
			"target":34963
		},
		{
			"buffer":0,
			"byteLength":11232,
			"byteOffset":5315808,
			"target":34962
		},
		{
			"buffer":0,
			"byteLength":11232,
			"byteOffset":5327040,
			"target":34962
		},
		{
			"buffer":0,
			"byteLength":7488,
			"byteOffset":5338272,
			"target":34962
		},
		{
			"buffer":0,
			"byteLength":14976,
			"byteOffset":5345760,
			"target":34962
		},
		{
			"buffer":0,
			"byteLength":4560,
			"byteOffset":5360736,
			"target":34963
		}
	],
	"buffers":[
		{
			"byteLength":5365296,
			"uri":"spaceStation-0cc740ce4177c5e2a4e67feefff546c9.bin"
		}
	]
}
